<?xml version="1.0" encoding="UTF-8" standalone="no"?>
<!DOCTYPE svg PUBLIC "-//W3C//DTD SVG 1.1//EN" "http://www.w3.org/Graphics/SVG/1.1/DTD/svg11.dtd">
<svg width="100%" height="100%" viewBox="0 0 546 542" version="1.1" xmlns="http://www.w3.org/2000/svg" xmlns:xlink="http://www.w3.org/1999/xlink" xml:space="preserve" xmlns:serif="http://www.serif.com/" style="fill-rule:evenodd;clip-rule:evenodd;stroke-linejoin:round;stroke-miterlimit:2;">
    <g id="Artboard1" transform="matrix(1,0,0,1,-204.71,-248.523)">
        <rect x="204.71" y="248.523" width="545.248" height="541.969" style="fill:none;"/>
        <g transform="matrix(1.58426,0,0,1.49917,87.0315,71.9896)">
            <path d="M273.499,134.152L282.881,196.882C289.17,199.316 295.219,202.39 300.944,206.06L353.274,174.689C366.377,187.1 377.43,201.725 385.982,217.966L345.352,264.817C347.469,271.523 348.963,278.43 349.813,285.441L405.685,309.051C404.658,327.598 400.713,345.836 394.012,363.016L333.964,358.71C330.315,364.637 326.129,370.176 321.464,375.249L338.805,436.061C324.422,446.778 308.449,454.895 291.541,460.078L257.293,407.856C250.626,408.542 243.912,408.542 237.245,407.856L202.997,460.078C186.088,454.895 170.115,446.778 155.732,436.061L173.074,375.249C168.409,370.176 164.223,364.637 160.574,358.71L100.526,363.016C93.825,345.836 89.879,327.598 88.853,309.051L144.725,285.441C145.575,278.43 147.069,271.523 149.186,264.817L108.556,217.966C117.107,201.725 128.161,187.1 141.264,174.689L193.594,206.06C199.319,202.39 205.368,199.316 211.657,196.882L221.039,134.152C238.404,131.081 256.133,131.081 273.499,134.152ZM247.269,265.8C264.785,265.8 279.006,280.805 279.006,299.288C279.006,317.77 264.785,332.775 247.269,332.775C229.753,332.775 215.532,317.77 215.532,299.288C215.532,280.805 229.753,265.8 247.269,265.8Z" style="fill:rgb(255,0,0);"/>
        </g>
    </g>
</svg>
